<svg id="Layer_1" data-name="Layer 1" xmlns="http://www.w3.org/2000/svg" width="151.29" height="38.12" viewBox="0 0 151.29 38.12"><defs><style>.cls-1{fill:#231f20;}.cls-2{fill:#f99f1c;}.cls-3{fill:#f89f1f;}</style></defs><title>devatlant_logo</title><path class="cls-1" d="M15.41,1.4c2.95,0,5.14.68,6.6,2S24.37,7,24.37,9.83A8.52,8.52,0,0,1,22,16.24q-2.14,2-6.66,2H8.58V1.4h6.83Zm6,8.49A6.54,6.54,0,0,0,20,5.28a4.7,4.7,0,0,0-1.83-1.09,7.83,7.83,0,0,0-2.61-.37H11.62v12h4.27A5.54,5.54,0,0,0,20,14.5a4.47,4.47,0,0,0,1.1-1.94,10.16,10.16,0,0,0,.33-2.73Z"/><path class="cls-1" d="M45.61,4.21l4.52,11.47h.81L55.41,4.21h3l-5.9,14.05h-4.1l-5.9-14Z"/><path class="cls-2" d="M76.73,18.26H73.58l-1.32-3H62.34l-1.35,3H58L65.57,1.4h3.57Zm-5.54-5.42L67.51,4.19h-.42l-3.71,8.65Z"/><path class="cls-2" d="M79.76,4.27,80.15.84h2.42V4.16H88.5V6.21l-5.93.22v7.05a2.82,2.82,0,0,0,.5,1.83,2.74,2.74,0,0,0,2.2.76,9.72,9.72,0,0,0,1.88-.17A9.18,9.18,0,0,0,89,15.25l.76,1.8a8.58,8.58,0,0,1-2.33,1.13,9.43,9.43,0,0,1-2.62.33A5.05,5.05,0,0,1,81,17.16,3.84,3.84,0,0,1,80,15.65a6.35,6.35,0,0,1-.28-2V6.55H77.32v-2Z"/><path class="cls-2" d="M94.56,0V18.26H91.7V2.14L90,1.83V0Z"/><path class="cls-2" d="M111.45,14.36a11.16,11.16,0,0,0,.14,1.85,6.66,6.66,0,0,0,.56,1.71l-1.63.65a4.05,4.05,0,0,1-1.35-1.63,9,9,0,0,1-2.36,1.24,9.05,9.05,0,0,1-2.86.42,12.42,12.42,0,0,1-2.79-.28,5.63,5.63,0,0,1-2.1-1,3.82,3.82,0,0,1-1.27-1.43,4.67,4.67,0,0,1-.45-2.19,4,4,0,0,1,.57-2.17,4.65,4.65,0,0,1,1.48-1.48,7,7,0,0,1,2.11-.88A10.4,10.4,0,0,1,104,8.93a19.32,19.32,0,0,1,2.35.12,19,19,0,0,1,2.36.42V8.62a1.77,1.77,0,0,0-.25-.95,2,2,0,0,0-.67-.68,3.6,3.6,0,0,0-1.46-.5,13.19,13.19,0,0,0-1.77-.14c-.48,0-.93,0-1.35,0s-.84.08-1.27.14a9.36,9.36,0,0,0-1.26.25c-.42.11-.87.22-1.35.37L98.72,5.2a17.75,17.75,0,0,1,3-.93A15.58,15.58,0,0,1,104.9,4a11.89,11.89,0,0,1,2.95.34,5.51,5.51,0,0,1,2.22,1,4.09,4.09,0,0,1,1.09,1.46,4.32,4.32,0,0,1,.4,1.82Zm-7.56-3.18a8.55,8.55,0,0,0-1.43.14,3.18,3.18,0,0,0-1.27.51,2,2,0,0,0-.7.76,2.2,2.2,0,0,0-.25,1.09,2.26,2.26,0,0,0,.25,1.1,1.94,1.94,0,0,0,.7.75,3.64,3.64,0,0,0,1.32.54,7.91,7.91,0,0,0,1.66.17,8.78,8.78,0,0,0,2.39-.31,12,12,0,0,0,2-.84V11.43c-.48,0-.9-.11-1.27-.14l-1.09-.08c-.37,0-.73-.06-1.12-.06h-1.3Z"/><path class="cls-2" d="M117.77,5.7a7.7,7.7,0,0,1,2.16-1.23A8,8,0,0,1,122.77,4a9.8,9.8,0,0,1,2.86.36,4.87,4.87,0,0,1,2,1.18,5.62,5.62,0,0,1,1.27,2,8.33,8.33,0,0,1,.45,3v7.73H126.5V10.65a4.75,4.75,0,0,0-1-3.35,4,4,0,0,0-3-1,7.63,7.63,0,0,0-2.36.34,7.5,7.5,0,0,0-2.08,1.15V18.26h-2.86v-14h2.08Z"/><path class="cls-2" d="M133.36,4.27l.39-3.43h2.42V4.16h5.92V6.21l-5.92.22v7.05a2.76,2.76,0,0,0,.5,1.83,2.7,2.7,0,0,0,2.19.76,9.72,9.72,0,0,0,1.88-.17,9.25,9.25,0,0,0,1.89-.65l.75,1.8a8.31,8.31,0,0,1-2.33,1.13,9.4,9.4,0,0,1-2.61.33,5.09,5.09,0,0,1-3.88-1.35,3.71,3.71,0,0,1-.92-1.51,6.35,6.35,0,0,1-.28-2V6.55h-2.45v-2Z"/><path class="cls-1" d="M11.26,33.32l-.25.56a2.75,2.75,0,0,0-1.45-.44c-.67,0-1.11.25-1.11.69,0,1.35,3,.65,2.94,2.55,0,.87-.77,1.43-1.89,1.43a3,3,0,0,1-2-.8l.27-.54a2.57,2.57,0,0,0,1.74.74c.76,0,1.23-.3,1.23-.8,0-1.38-2.94-.65-2.94-2.52,0-.83.73-1.36,1.81-1.36A3.09,3.09,0,0,1,11.26,33.32Z"/><path class="cls-1" d="M31.08,35.47a2.75,2.75,0,1,1-2.74-2.63A2.68,2.68,0,0,1,31.08,35.47Zm-4.88,0a2.13,2.13,0,1,0,2.14-2.06A2.11,2.11,0,0,0,26.2,35.47Z"/><path class="cls-1" d="M46.24,33.43v1.84h2.44v.58H46.24v2.24h-.6V32.85H49v.58Z"/><path class="cls-1" d="M64.91,33.43v4.66h-.59V33.43H62.61v-.58h4v.58Z"/><path class="cls-1" d="M85.42,38.09,84,33.68l-1.43,4.41H82l-1.75-5.24h.64l1.44,4.54,1.42-4.53h.6l1.43,4.54,1.42-4.54h.62L86,38.09Z"/><path class="cls-1" d="M102.16,36.77l-.59,1.32h-.63l2.35-5.24h.62l2.34,5.24h-.65L105,36.77Zm1.42-3.23-1.17,2.65h2.35Z"/><path class="cls-1" d="M122.88,36.42l-.35,0h-1.39v1.65h-.6V32.85h2c1.31,0,2.07.65,2.07,1.76a1.64,1.64,0,0,1-1.18,1.7l1.23,1.78H124Zm-.35-.56c1,0,1.49-.42,1.49-1.23s-.54-1.2-1.49-1.2h-1.39v2.43Z"/><path class="cls-1" d="M140,33.43v1.72h2.64v.58H140v1.79h3v.57h-3.65V32.85H143v.58Z"/><path class="cls-3" d="M0,20c2.53,3.91,35.14,7,75,7s72.47-3.09,75-7c-15.9,2.45-43.55,4.07-75,4.07S15.9,22.44,0,20Z"/><path class="cls-1" d="M41.45,11.38a8.82,8.82,0,0,0-.53-3.23A6,6,0,0,0,39.4,5.84a7.47,7.47,0,0,0-3.3-1.62A8,8,0,0,0,34.8,4,7.31,7.31,0,0,0,34,4h-.51a8.52,8.52,0,0,0-2.6.49,6.12,6.12,0,0,0-2.36,1.46A6.79,6.79,0,0,0,27,8.23a8.1,8.1,0,0,0-.56,3,7.76,7.76,0,0,0,.59,3.1,6.9,6.9,0,0,0,1.66,2.33A6.31,6.31,0,0,0,31.22,18a12.2,12.2,0,0,0,3.4.47,14.08,14.08,0,0,0,2.78-.25,12.11,12.11,0,0,0,2.53-.79l-.64-2A13.54,13.54,0,0,1,37,16a16.38,16.38,0,0,1-2.36.17,8.94,8.94,0,0,1-2.27-.28A4.15,4.15,0,0,1,30.61,15a3.79,3.79,0,0,1-1.18-2.5h12ZM29.4,10.25a4.6,4.6,0,0,1,1.18-2.67A4.47,4.47,0,0,1,34,6.32a4.79,4.79,0,0,1,3.36,1.07,4.39,4.39,0,0,1,1.26,2.86Z"/></svg>