<?xml version="1.0" encoding="UTF-8" standalone="no"?>
<svg
    xmlns:dc="http://purl.org/dc/elements/1.1/"
    xmlns:cc="http://creativecommons.org/ns#"
    xmlns:rdf="http://www.w3.org/1999/02/22-rdf-syntax-ns#"
    xmlns:svg="http://www.w3.org/2000/svg"
    xmlns="http://www.w3.org/2000/svg"
    viewBox="0 0 332 195.33333"
    height="195.33333"
    width="332"
    xml:space="preserve"
    id="svg2"
    version="1.1"><metadata
     id="metadata8"><rdf:RDF><cc:Work
         rdf:about=""><dc:format>image/svg+xml</dc:format><dc:type
    rdf:resource="http://purl.org/dc/dcmitype/StillImage" /></cc:Work></rdf:RDF></metadata><defs
    id="defs6"><clipPath
       id="clipPath18"
       clipPathUnits="userSpaceOnUse"><path
         id="path16"
         d="M 0,146.5 H 249 V 0 H 0 Z" /></clipPath></defs><g
    transform="matrix(1.3333333,0,0,-1.3333333,0,195.33333)"
    id="g10"><g
       id="g12"><g
         clip-path="url(#clipPath18)"
         id="g14"><g
           transform="translate(70.421,82.4218)"
           id="g20"><path
             id="path22"
             style="fill:#231f20;fill-opacity:1;fill-rule:nonzero;stroke:none"
             d="M 0,0 C 0,2.051 -0.478,3.596 -1.433,4.607 -1.91,5.085 -2.528,5.45 -3.259,5.703 -3.989,5.955 -4.86,6.068 -5.871,6.068 H -9.804 V -5.984 h 4.27 c 1.798,0 3.146,0.45 4.073,1.377 0.506,0.505 0.871,1.152 1.096,1.938 0.225,0.787 0.337,1.686 0.337,2.725 z m -6.012,8.484 c 2.95,0 5.141,-0.675 6.602,-2.023 C 2.163,5 2.95,2.865 2.95,0.056 2.95,-2.725 2.163,-4.86 0.618,-6.349 -0.815,-7.697 -3.034,-8.372 -6.04,-8.372 h -6.798 V 8.484 h 6.798 z" /></g><g
    transform="translate(94.6062,88.0963)"
    id="g24"><path
             id="path26"
             style="fill:#231f20;fill-opacity:1;fill-rule:nonzero;stroke:none"
             d="M 0,0 4.523,-11.462 H 5.337 L 9.804,0 h 2.978 L 6.883,-14.046 H 2.781 L -3.118,0 Z" /></g><g
    transform="translate(120.1918,79.4722)"
    id="g28"><path
             id="path30"
             style="fill:#f99f1b;fill-opacity:1;fill-rule:nonzero;stroke:none"
             d="M 0,0 -3.68,8.652 H -4.101 L -7.81,0 Z M 5.534,-5.422 H 2.388 l -1.321,3.006 h -9.916 l -1.348,-3.006 h -3.034 l 7.613,16.855 h 3.567 z" /></g><g
    transform="translate(128.7592,88.0403)"
    id="g32"><path
             id="path34"
             style="fill:#f99f1b;fill-opacity:1;fill-rule:nonzero;stroke:none"
             d="M 0,0 0.393,3.427 H 2.809 V 0.112 h 5.928 v -2.05 L 2.809,-2.163 v -7.051 c 0,-0.815 0.169,-1.433 0.506,-1.826 0.421,-0.506 1.152,-0.759 2.191,-0.759 0.702,0 1.32,0.056 1.882,0.169 0.562,0.112 1.18,0.337 1.882,0.646 l 0.759,-1.798 c -0.787,-0.534 -1.573,-0.899 -2.332,-1.124 -0.758,-0.224 -1.629,-0.337 -2.612,-0.337 -1.742,0 -3.034,0.45 -3.877,1.349 -0.422,0.421 -0.731,0.927 -0.927,1.517 C 0.084,-10.787 0,-10.113 0,-9.355 v 7.08 h -2.444 v 1.994 z" /></g><g
    transform="translate(143.5628,92.3102)"
    id="g36"><path
             id="path38"
             style="fill:#f99f1b;fill-opacity:1;fill-rule:nonzero;stroke:none"
             d="m 0,0 v -18.26 h -2.865 v 16.125 l -1.686,0.309 V 0 Z" /></g><g
    transform="translate(152.889,81.1295)"
    id="g40"><path
             id="path42"
             style="fill:#f99f1b;fill-opacity:1;fill-rule:nonzero;stroke:none"
             d="m 0,0 c -0.478,0 -0.955,-0.056 -1.433,-0.141 -0.477,-0.084 -0.899,-0.252 -1.264,-0.505 -0.309,-0.197 -0.534,-0.45 -0.702,-0.759 -0.169,-0.309 -0.253,-0.674 -0.253,-1.095 0,-0.422 0.084,-0.787 0.253,-1.096 0.168,-0.309 0.393,-0.562 0.702,-0.758 0.365,-0.253 0.815,-0.422 1.32,-0.534 0.506,-0.112 1.068,-0.169 1.658,-0.169 0.927,0 1.714,0.113 2.388,0.309 0.674,0.197 1.348,0.478 2.05,0.843 v 3.652 C 4.242,-0.197 3.821,-0.141 3.455,-0.112 3.09,-0.084 2.725,-0.056 2.36,-0.028 1.995,0 1.629,0.028 1.236,0.028 h -1.292 z m 7.557,-3.174 c 0,-0.703 0.056,-1.321 0.14,-1.854 0.085,-0.534 0.281,-1.096 0.562,-1.714 L 6.63,-7.388 C 6.04,-6.967 5.59,-6.433 5.281,-5.759 4.551,-6.293 3.764,-6.714 2.922,-6.995 2.079,-7.276 1.124,-7.416 0.056,-7.416 c -1.039,0 -1.966,0.084 -2.781,0.281 -0.815,0.196 -1.517,0.505 -2.107,0.955 -0.534,0.365 -0.955,0.842 -1.264,1.432 -0.309,0.59 -0.449,1.321 -0.449,2.192 0,0.842 0.196,1.573 0.561,2.163 0.366,0.59 0.871,1.095 1.489,1.489 0.618,0.393 1.321,0.674 2.107,0.87 0.787,0.197 1.601,0.281 2.444,0.281 0.843,0 1.63,-0.028 2.36,-0.112 C 3.146,2.051 3.933,1.91 4.776,1.714 V 2.556 C 4.776,2.922 4.691,3.231 4.523,3.511 4.354,3.792 4.13,4.017 3.849,4.186 3.455,4.439 2.978,4.607 2.388,4.691 c -0.59,0.085 -1.18,0.141 -1.77,0.141 -0.477,0 -0.927,0 -1.348,-0.028 C -1.152,4.776 -1.573,4.719 -1.995,4.663 -2.416,4.607 -2.837,4.523 -3.259,4.41 -3.68,4.298 -4.13,4.186 -4.607,4.045 l -0.562,1.939 c 1.039,0.421 2.051,0.73 3.006,0.927 0.955,0.196 2.023,0.281 3.174,0.281 1.068,0 2.051,-0.113 2.95,-0.338 C 4.86,6.63 5.59,6.293 6.18,5.815 6.658,5.394 7.023,4.916 7.276,4.354 7.529,3.792 7.669,3.174 7.669,2.528 Z" /></g><g
    transform="translate(166.7657,86.6074)"
    id="g44"><path
             id="path46"
             style="fill:#f99f1b;fill-opacity:1;fill-rule:nonzero;stroke:none"
             d="M 0,0 C 0.618,0.506 1.348,0.927 2.163,1.236 2.978,1.545 3.933,1.714 5,1.714 6.096,1.714 7.051,1.601 7.866,1.348 8.68,1.096 9.355,0.702 9.888,0.169 c 0.534,-0.534 0.955,-1.208 1.264,-2.023 0.31,-0.815 0.45,-1.798 0.45,-2.978 v -7.725 H 8.737 v 7.613 c 0,1.545 -0.338,2.669 -0.984,3.343 C 7.107,-0.927 6.096,-0.59 4.747,-0.59 3.849,-0.59 3.062,-0.702 2.388,-0.927 1.714,-1.152 1.011,-1.545 0.309,-2.079 V -12.557 H -2.556 V 1.489 h 2.078 z" /></g><g
    transform="translate(182.356,88.0403)"
    id="g48"><path
             id="path50"
             style="fill:#f99f1b;fill-opacity:1;fill-rule:nonzero;stroke:none"
             d="M 0,0 0.393,3.427 H 2.809 V 0.112 h 5.928 v -2.05 L 2.809,-2.163 v -7.051 c 0,-0.815 0.169,-1.433 0.506,-1.826 0.421,-0.506 1.152,-0.759 2.191,-0.759 0.702,0 1.32,0.056 1.882,0.169 0.562,0.112 1.18,0.337 1.882,0.646 l 0.759,-1.798 c -0.787,-0.534 -1.573,-0.899 -2.332,-1.124 -0.758,-0.224 -1.629,-0.337 -2.612,-0.337 -1.742,0 -3.034,0.45 -3.877,1.349 -0.421,0.421 -0.73,0.927 -0.927,1.517 C 0.084,-10.787 0,-10.113 0,-9.355 v 7.08 h -2.444 v 1.994 z" /></g><g
    transform="translate(60.2612,58.9918)"
    id="g52"><path
             id="path54"
             style="fill:#231f20;fill-opacity:1;fill-rule:nonzero;stroke:none"
             d="m 0,0 -0.254,-0.561 c -0.471,0.314 -1.025,0.441 -1.444,0.441 -0.673,0 -1.114,-0.254 -1.114,-0.695 0,-1.347 2.947,-0.644 2.939,-2.543 0,-0.875 -0.77,-1.436 -1.892,-1.436 -0.763,0 -1.511,0.328 -2.005,0.8 l 0.27,0.538 c 0.486,-0.471 1.151,-0.74 1.742,-0.74 0.756,0 1.227,0.307 1.227,0.808 0.008,1.376 -2.94,0.643 -2.94,2.52 0,0.823 0.726,1.354 1.811,1.354 C -1.055,0.486 -0.434,0.292 0,0" /></g><g
    transform="translate(75.1986,56.8377)"
    id="g56"><path
             id="path58"
             style="fill:#231f20;fill-opacity:1;fill-rule:nonzero;stroke:none"
             d="m 0,0 c 0,-1.152 0.972,-2.072 2.139,-2.072 1.167,0 2.124,0.92 2.124,2.072 0,1.152 -0.957,2.064 -2.124,2.064 C 0.972,2.064 0,1.152 0,0 m 4.877,0 c 0,-1.474 -1.212,-2.648 -2.738,-2.648 -1.533,0 -2.745,1.174 -2.745,2.648 0,1.481 1.212,2.633 2.745,2.633 1.526,0 2.738,-1.16 2.738,-2.633" /></g><g
    transform="translate(95.2369,58.8795)"
    id="g60"><path
             id="path62"
             style="fill:#231f20;fill-opacity:1;fill-rule:nonzero;stroke:none"
             d="M 0,0 V -1.84 H 2.446 V -2.416 H 0 V -4.66 H -0.598 V 0.576 H 2.73 V 0 Z" /></g><g
    transform="translate(113.9142,58.8795)"
    id="g64"><path
             id="path66"
             style="fill:#231f20;fill-opacity:1;fill-rule:nonzero;stroke:none"
             d="M 0,0 V -4.66 H -0.598 V 0 H -2.304 V 0.576 H 1.713 L 1.713,0 Z" /></g><g
    transform="translate(134.4237,54.2197)"
    id="g68"><path
             id="path70"
             style="fill:#231f20;fill-opacity:1;fill-rule:nonzero;stroke:none"
             d="M 0,0 -1.414,4.413 -2.842,0 h -0.614 l -1.75,5.236 h 0.643 l 1.437,-4.54 1.421,4.532 0.598,0.008 1.436,-4.54 1.421,4.54 H 2.371 L 0.613,0 Z" /></g><g
    transform="translate(152.5775,58.7749)"
    id="g72"><path
             id="path74"
             style="fill:#231f20;fill-opacity:1;fill-rule:nonzero;stroke:none"
             d="M 0,0 -1.167,-2.655 H 1.182 Z M -1.421,-3.231 -2.004,-4.555 H -2.64 l 2.348,5.236 H 0.329 L 2.67,-4.555 H 2.019 l -0.583,1.324 z" /></g><g
    transform="translate(171.5313,56.4486)"
    id="g76"><path
             id="path78"
             style="fill:#231f20;fill-opacity:1;fill-rule:nonzero;stroke:none"
             d="M 0,0 C 0.95,0 1.488,0.419 1.488,1.234 1.488,2.027 0.95,2.431 0,2.431 H -1.391 V 0 Z M 0.351,-0.561 C 0.239,-0.568 0.12,-0.576 0,-0.576 H -1.391 V -2.229 H -1.99 V 3.007 H 0 c 1.309,0 2.064,-0.644 2.064,-1.758 0,-0.867 -0.419,-1.451 -1.174,-1.698 l 1.227,-1.78 H 1.436 Z" /></g><g
    transform="translate(189.0191,58.8795)"
    id="g80"><path
             id="path82"
             style="fill:#231f20;fill-opacity:1;fill-rule:nonzero;stroke:none"
             d="M 0,0 V -1.72 H 2.64 V -2.296 H 0 V -4.091 H 3.052 V -4.66 h -3.65 V 0.576 H 2.954 V 0 Z" /></g><g
    transform="translate(49,72.322)"
    id="g84"><path
             id="path86"
             style="fill:#f89e1f;fill-opacity:1;fill-rule:nonzero;stroke:none"
             d="m 0,0 c 2.531,-3.908 35.139,-7 75,-7 39.861,0 72.469,3.092 75,7 -15.902,-2.449 -43.551,-4.069 -75,-4.069 -31.449,0 -59.098,1.62 -75,4.069" /></g><g
    transform="translate(78.3981,82.0566)"
    id="g88"><path
             id="path90"
             style="fill:#231f20;fill-opacity:1;fill-rule:nonzero;stroke:none"
             d="M 0,0 C 0.14,1.096 0.534,1.995 1.18,2.669 1.992,3.509 3.112,3.929 4.566,3.932 6.047,3.929 7.166,3.565 7.922,2.865 8.624,2.219 9.046,1.264 9.186,0 Z m 12.051,-1.124 c 0,1.236 -0.168,2.304 -0.533,3.231 C 11.153,3.034 10.67,3.817 10.001,4.411 9.131,5.182 8.037,5.717 6.701,6.03 6.311,6.13 5.874,6.21 5.401,6.254 5.124,6.28 4.859,6.288 4.603,6.288 L 4.607,6.293 C 4.557,6.293 4.511,6.288 4.461,6.287 4.336,6.285 4.214,6.281 4.096,6.273 3.148,6.23 2.275,6.073 1.489,5.787 0.562,5.45 -0.225,4.972 -0.871,4.326 -1.517,3.68 -2.023,2.922 -2.388,2.023 -2.753,1.124 -2.95,0.112 -2.95,-1.011 c 0,-1.152 0.197,-2.192 0.59,-3.09 0.394,-0.899 0.955,-1.686 1.658,-2.332 0.646,-0.59 1.488,-1.04 2.528,-1.348 1.039,-0.31 2.163,-0.478 3.399,-0.478 1.011,0 1.938,0.084 2.781,0.253 0.843,0.168 1.686,0.421 2.528,0.786 L 9.888,-5.225 C 9.13,-5.478 8.371,-5.675 7.613,-5.787 6.854,-5.899 6.068,-5.956 5.253,-5.956 c -0.786,0 -1.545,0.085 -2.275,0.281 -0.731,0.197 -1.321,0.506 -1.77,0.927 -0.674,0.619 -1.068,1.461 -1.18,2.501 h 12.023 z" /></g></g></g></g></svg>
